Coordinates
version=1
nRows=15
nColumns=42
inDegrees=yes

Units are S.I. units (second, meters, Newtons, ...)
If the header above contains a line with 'inDegrees', this indicates whether rotational values are in degrees (yes) or radians (no).

endheader
time	pelvis_tilt	pelvis_list	pelvis_rotation	pelvis_tx	pelvis_ty	pelvis_tz	hip_flexion_r	hip_adduction_r	hip_rotation_r	knee_angle_r	knee_adduction_r	knee_angle_r_beta	ankle_angle_r	subtalar_angle_r	mtp_angle_r	hip_flexion_l	hip_adduction_l	hip_rotation_l	knee_angle_l	knee_adduction_l	knee_angle_l_beta	ankle_angle_l	subtalar_angle_l	mtp_angle_l	lumbar_extension	lumbar_bending	lumbar_rotation	arm_flex_r	arm_add_r	arm_rot_r	elbow_flex_r	pro_sup_r	wrist_flex_r	wrist_dev_r	arm_flex_l	arm_add_l	arm_rot_l	elbow_flex_l	pro_sup_l	wrist_flex_l	wrist_dev_l
      1.75000000	      5.05714053	     -0.28273708	     12.61531887	     -0.64927055	      0.87662851	     -0.18481358	     15.89607030	     -5.83891042	    -22.76669413	     28.76100207	     -2.71259461	      0.50197418	     12.09000295	     22.86822798	     -7.63475237	      0.91596148	     -0.26918876	     -0.70797555	     35.14236975	     -4.61623980	      0.61335006	     24.15884141	     20.60864755	     -7.63475237	    -29.00759772	     10.78781244	     -4.24151634	      0.33175438	    -12.10119865	    -18.75529659	     48.51031608	     90.00000001	      0.00000000	      0.00000000	     18.70603009	     -9.06499204	     31.92414679	     49.10052407	     90.00000001	      0.00000000	      0.00000000
      1.76000000	      5.30469095	     -0.24440953	     12.63399386	     -0.64509074	      0.87802937	     -0.18293530	     15.09486460	     -5.57078611	    -23.14508963	     28.26860342	     -2.83209212	      0.49338020	     12.59019840	     23.57375147	     -7.63289064	      0.35529864	     -0.55427586	     -0.69686497	     35.04323878	     -4.52390837	      0.61161990	     23.13768956	     20.52150616	     -7.63289064	    -29.23064889	     10.81812348	     -4.18604014	      0.49747623	    -12.16206441	    -18.39411991	     48.80491939	     90.00000001	      0.00000000	      0.00000000	     18.55476993	     -9.12590507	     32.26088911	     49.14319471	     90.00000001	      0.00000000	      0.00000000
      1.77000000	      5.14785347	     -0.13869297	     12.49480313	     -0.64114563	      0.87873722	     -0.18099613	     14.93206675	     -5.56141502	    -23.27415432	     28.21338387	     -2.78001510	      0.49241644	     12.60529392	     23.61315936	     -7.63254913	      0.28770847	     -0.59669399	     -0.70629602	     35.10043085	     -4.46139361	      0.61261809	     23.05147717	     20.48792662	     -7.63254913	    -29.03898099	     10.64693652	     -4.14853178	      0.72898784	    -12.16306699	    -18.33981635	     48.94593281	     90.00000001	      0.00000000	      0.00000000	     18.28652470	     -9.11249054	     32.33540126	     49.09576914	     90.00000001	      0.00000000	      0.00000000
      1.78000000	      5.33174945	     -0.02069500	     12.52654576	     -0.63695052	      0.88000331	     -0.17908403	     14.16891848	     -5.42825484	    -23.85782140	     27.69046967	     -2.89623222	      0.48328987	     12.94833884	     24.63628631	     -7.63086734	     -0.11219461	     -0.82876045	     -0.74349123	     35.21717355	     -4.27194020	      0.61465563	     22.04622686	     20.23442280	     -7.63086734	    -29.17655844	     10.56532433	     -4.28715508	      0.93530927	    -12.18111038	    -17.98800312	     49.26047644	     90.00000001	      0.00000000	      0.00000000	     18.10256009	     -9.28940295	     32.75939176	     49.11113294	     90.00000001	      0.00000000	      0.00000000
      1.79000000	      5.19411786	      0.09713191	     12.37401427	     -0.63294624	      0.88073136	     -0.17717286	     13.97784195	     -5.42737463	    -24.02948226	     27.61527525	     -2.86380758	      0.48197748	     12.97905663	     24.73900057	     -7.63047434	     -0.18082415	     -0.85875523	     -0.74758552	     35.32063651	     -4.18542942	      0.61646140	     21.90790018	     20.17900302	     -7.63047434	    -28.98666815	     10.39078396	     -4.24644954	      1.15633325	    -12.18253251	    -17.92327537	     49.40020690	     90.00000001	      0.00000000	      0.00000000	     17.83637456	     -9.27071399	     32.86040537	     49.07469777	     90.00000001	      0.00000000	      0.00000000
      1.80000000	      5.56214717	      0.29402007	     12.49409607	     -0.62856891	      0.88222237	     -0.17546477	     13.00503477	     -5.42780402	    -25.50246800	     27.11272648	     -3.29258026	      0.47320635	     13.32009838	     27.75528433	     -7.62488542	     -0.81326666	     -1.02328239	     -0.41356472	     35.42363666	     -3.85926508	      0.61825909	     20.80008417	     19.24033550	     -7.62488542	    -29.28339766	     10.30889108	     -4.41949006	      1.22839968	    -12.29398429	    -17.26626196	     49.78437046	     90.00000001	      0.00000000	      0.00000000	     17.76602450	     -9.59295502	     33.91944839	     49.25245530	     90.00000001	      0.00000000	      0.00000000
      1.81000000	      5.48123116	      0.42785848	     12.46810451	     -0.62469841	      0.88298294	     -0.17366379	     12.69106308	     -5.44211166	    -25.74016515	     26.93371220	     -3.24626282	      0.47008196	     13.53453004	     28.02941405	     -7.62339270	     -0.72900871	     -1.08429405	     -0.46832600	     35.87370424	     -3.80119972	      0.62611425	     20.11808726	     19.09366081	     -7.62339270	    -29.15183802	     10.16488905	     -4.51878749	      1.46649894	    -12.27135054	    -17.20681090	     49.93869939	     90.00000001	      0.00000000	      0.00000000	     17.55583911	     -9.60691520	     34.07380370	     49.21450016	     90.00000001	      0.00000000	      0.00000000
      1.82000000	      5.49707347	      0.50368296	     12.47307218	     -0.62067932	      0.88381676	     -0.17182729	     12.25555780	     -5.34693435	    -26.37907869	     26.64935355	     -3.39475224	      0.46511896	     13.72724543	     29.13087512	     -7.61862893	     -0.72897144	     -1.25976804	     -0.31859667	     36.37151484	     -3.58146034	      0.63480269	     19.30943033	     18.47395590	     -7.61862893	    -29.08401539	     10.10180146	     -4.59761334	      1.63616776	    -12.28158686	    -16.99292531	     50.13833330	     90.00000001	      0.00000000	      0.00000000	     17.42211808	     -9.74862966	     34.62373403	     49.25712320	     90.00000001	      0.00000000	      0.00000000
      1.83000000	      5.50616334	      0.69043499	     12.41560047	     -0.61678559	      0.88463194	     -0.17000448	     11.83775859	     -5.39757125	    -26.48029692	     26.49353854	     -3.29197078	      0.46239948	     13.85673966	     29.26445126	     -7.61792822	     -0.67319619	     -1.29351590	     -0.38327472	     36.97454927	     -3.48075358	      0.64532762	     18.75553048	     18.41072969	     -7.61792822	    -29.05324277	      9.89638769	     -4.68009831	      1.86750051	    -12.23649499	    -16.94144285	     50.27206246	     90.00000001	      0.00000000	      0.00000000	     17.26770649	     -9.75002938	     34.74426387	     49.20155633	     90.00000001	      0.00000000	      0.00000000
      1.84000000	      5.53465094	      0.68274268	     12.49594720	     -0.61286807	      0.88538654	     -0.16841561	     11.32793477	     -5.22982488	    -26.66929430	     26.15019199	     -3.14296516	      0.45640695	     14.10161912	     29.62846567	     -7.61646907	     -0.48065680	     -1.51667068	     -0.42251442	     37.73925783	     -3.50104308	      0.65867431	     17.63529482	     18.09191109	     -7.61646907	    -28.97493287	      9.97544493	     -4.78365657	      2.05458580	    -12.28065652	    -16.84654809	     50.42987899	     90.00000001	      0.00000000	      0.00000000	     17.10914908	     -9.77639277	     35.07957179	     49.22872508	     90.00000001	      0.00000000	      0.00000000
      1.85000000	      5.61886365	      0.79681075	     12.45768250	     -0.60894103	      0.88617072	     -0.16663914	     10.81470573	     -5.16189467	    -26.75279659	     25.92478346	     -3.04090819	      0.45247283	     14.23027161	     29.82836401	     -7.61554420	     -0.37301054	     -1.64013877	     -0.41715076	     38.55651019	     -3.38325702	      0.67293805	     16.89968544	     17.88624308	     -7.61554420	    -28.98497476	      9.87611711	     -4.81870540	      2.26040668	    -12.27717274	    -16.76322052	     50.55561386	     90.00000001	      0.00000000	      0.00000000	     17.00513613	     -9.81014668	     35.31280978	     49.20652977	     90.00000001	      0.00000000	      0.00000000
      1.86000000	      5.72104522	      0.68982432	     12.58174086	     -0.60505151	      0.88688717	     -0.16496437	     10.22073370	     -4.76794675	    -26.87810073	     25.43886604	     -3.00750108	      0.44399197	     14.33813829	     30.14038803	     -7.61226380	     -0.10484956	     -2.05217338	     -0.21134084	     39.55852227	     -3.18388687	      0.69042646	     15.71582400	     17.11961853	     -7.61226380	    -28.96399527	     10.04893929	     -4.87208051	      2.38841540	    -12.34591387	    -16.57953307	     50.71622525	     90.00000001	      0.00000000	      0.00000000	     16.94463069	     -9.88844735	     35.96906034	     49.26873610	     90.00000001	      0.00000000	      0.00000000
      1.87000000	      5.86505699	      0.78931949	     12.61230357	     -0.60119788	      0.88764090	     -0.16339643	      9.59326425	     -4.73218792	    -26.79918604	     25.20906454	     -2.67922443	      0.43998118	     14.51811346	     30.19769133	     -7.61121101	      0.08222860	     -2.17234346	     -0.18280593	     40.57460956	     -3.15119234	      0.70816053	     14.78415011	     16.95587418	     -7.61121101	    -29.03280892	      9.99774035	     -4.94110432	      2.58797835	    -12.35353367	    -16.54032975	     50.81662370	     90.00000001	      0.00000000	      0.00000000	     16.86907649	     -9.85668641	     36.15590975	     49.25508721	     90.00000001	      0.00000000	      0.00000000
      1.88000000	      6.00472051	      0.69028142	     12.70582287	     -0.59736053	      0.88828530	     -0.16179272	      8.94544785	     -4.32741604	    -26.59835240	     24.70951201	     -2.51588606	      0.43126234	     14.65740242	     30.02706126	     -7.60892614	      0.41373655	     -2.52857185	      0.00434443	     41.73825881	     -3.05246568	      0.72847004	     13.46392042	     16.41743448	     -7.60892614	    -29.04773613	     10.16542972	     -4.95006025	      2.74119697	    -12.40170548	    -16.46800463	     50.92033789	     90.00000001	      0.00000000	      0.00000000	     16.81606877	     -9.85725262	     36.54048388	     49.30503059	     90.00000001	      0.00000000	      0.00000000
      1.89000000	      6.21389975	      0.76199703	     12.71145740	     -0.59349116	      0.88895593	     -0.16024838	      8.25546448	     -4.23994601	    -26.39234301	     24.48277378	     -2.15050509	      0.42730501	     14.80125514	     29.95082146	     -7.60798646	      0.62562290	     -2.70546750	      0.10799167	     42.90505960	     -2.95436347	      0.74883456	     12.49369586	     16.24087965	     -7.60798646	    -29.17077201	     10.13283974	     -4.95732246	      2.91668839	    -12.42144285	    -16.44363873	     50.98467728	     90.00000001	      0.00000000	      0.00000000	     16.77648832	     -9.80876092	     36.70003502	     49.30352994	     90.00000001	      0.00000000	      0.00000000
